HIERARCHY
ROOT Hips
{
  OFFSET 5.84602e-005 68.8428 3.50346
  CHANNELS 6 Xposition Yposition Zposition Zrotation Xrotation Yrotation
  JOINT Spine
  {
    OFFSET 0 8.597 -4.6522
    CHANNELS 3 Zrotation Xrotation Yrotation
    JOINT Spine1
    {
      OFFSET 0 7.8454 0.4098
      CHANNELS 3 Zrotation Xrotation Yrotation
      JOINT Spine2
      {
        OFFSET 0 9.7078 -2.1609
        CHANNELS 3 Zrotation Xrotation Yrotation
        JOINT Neck
        {
          OFFSET 0 21.8761 -0.4549
          CHANNELS 3 Zrotation Xrotation Yrotation
          JOINT Head
          {
            OFFSET 0 12.3537 3.3602
            CHANNELS 3 Zrotation Xrotation Yrotation
            End Site
            {
              OFFSET 0.0001 18.9506 0.5657
            }
          }
        }
        JOINT LeftShoulder
        {
          OFFSET 2.2086 21.1115 7.2329
          CHANNELS 3 Zrotation Xrotation Yrotation
          JOINT LeftArm
          {
            OFFSET 13.1193 3.0282 -4.8998
            CHANNELS 3 Zrotation Xrotation Yrotation
            JOINT LeftForeArm
            {
              OFFSET 27.4081 -0.0973053 -0.2375
              CHANNELS 3 Zrotation Xrotation Yrotation
              JOINT LeftHand
              {
                OFFSET 22.8641 0.0662994 -0.1369
                CHANNELS 3 Zrotation Xrotation Yrotation
                JOINT LeftHandIndex1
                {
                  OFFSET 8.8614 0.775009 2.4612
                  CHANNELS 3 Zrotation Xrotation Yrotation
                  JOINT LeftHandIndex2
                  {
                    OFFSET 3.3146 -0.808304 0.5841
                    CHANNELS 3 Zrotation Xrotation Yrotation
                    JOINT LeftHandIndex3
                    {
                      OFFSET 2.2628 -0.552002 0.3989
                      CHANNELS 3 Zrotation Xrotation Yrotation
                      End Site
                      {
                        OFFSET 1.6102 -0.4807 0.2612
                      }
                    }
                  }
                }
                JOINT LeftHandMiddle1
                {
                  OFFSET 8.9937 0.895004 0.2143
                  CHANNELS 3 Zrotation Xrotation Yrotation
                  JOINT LeftHandMiddle2
                  {
                    OFFSET 4.0984 0.0113983 -0.0242
                    CHANNELS 3 Zrotation Xrotation Yrotation
                    JOINT LeftHandMiddle3
                    {
                      OFFSET 2.2716 0.00689697 -0.0138001
                      CHANNELS 3 Zrotation Xrotation Yrotation
                      End Site
                      {
                        OFFSET 2.0404 -0.1441 0.0027
                      }
                    }
                  }
                }
                JOINT LeftHandRing1
                {
                  OFFSET 8.5234 0.597198 -2.0164
                  CHANNELS 3 Zrotation Xrotation Yrotation
                  JOINT LeftHandRing2
                  {
                    OFFSET 3.7188 -0.188293 -0.2328
                    CHANNELS 3 Zrotation Xrotation Yrotation
                    JOINT LeftHandRing3
                    {
                      OFFSET 2.1191 -0.106598 -0.1332
                      CHANNELS 3 Zrotation Xrotation Yrotation
                      End Site
                      {
                        OFFSET 1.8737 -0.2304 -0.0886
                      }
                    }
                  }
                }
                JOINT LeftHandPinky1
                {
                  OFFSET 7.9094 -0.601089 -3.4825
                  CHANNELS 3 Zrotation Xrotation Yrotation
                  JOINT LeftHandPinky2
                  {
                    OFFSET 2.2874 -0.477005 -0.6314
                    CHANNELS 3 Zrotation Xrotation Yrotation
                    JOINT LeftHandPinky3
                    {
                      OFFSET 1.6774 -0.349396 -0.4633
                      CHANNELS 3 Zrotation Xrotation Yrotation
                      End Site
                      {
                        OFFSET 1.4888 -0.4091 -0.3416
                      }
                    }
                  }
                }
                JOINT LeftHandThumb1
                {
                  OFFSET 1.833 -1.3875 1.3896
                  CHANNELS 3 Zrotation Xrotation Yrotation
                  JOINT LeftHandThumb2
                  {
                    OFFSET 3.4129 -1.121 2.5732
                    CHANNELS 3 Zrotation Xrotation Yrotation
                    JOINT LeftHandThumb3
                    {
                      OFFSET 2.2474 -0.804199 1.6192
                      CHANNELS 3 Zrotation Xrotation Yrotation
                      End Site
                      {
                        OFFSET 1.6527 -0.5689 1.1317
                      }
                    }
                  }
                }
              }
            }
          }
        }
        JOINT RightShoulder
        {
          OFFSET -2.2086 21.1115 7.2329
          CHANNELS 3 Zrotation Xrotation Yrotation
          JOINT RightArm
          {
            OFFSET -13.1216 3.0287 -4.9007
            CHANNELS 3 Zrotation Xrotation Yrotation
            JOINT RightForeArm
            {
              OFFSET -27.4081 -0.0973053 -0.2375
              CHANNELS 3 Zrotation Xrotation Yrotation
              JOINT RightHand
              {
                OFFSET -22.8641 0.0664063 -0.1369
                CHANNELS 3 Zrotation Xrotation Yrotation
                JOINT RightHandIndex1
                {
                  OFFSET -8.8614 0.774994 2.4612
                  CHANNELS 3 Zrotation Xrotation Yrotation
                  JOINT RightHandIndex2
                  {
                    OFFSET -3.3146 -0.808304 0.5841
                    CHANNELS 3 Zrotation Xrotation Yrotation
                    JOINT RightHandIndex3
                    {
                      OFFSET -2.2628 -0.552002 0.3989
                      CHANNELS 3 Zrotation Xrotation Yrotation
                      End Site
                      {
                        OFFSET -1.6102 -0.4807 0.2612
                      }
                    }
                  }
                }
                JOINT RightHandMiddle1
                {
                  OFFSET -8.9937 0.894989 0.2143
                  CHANNELS 3 Zrotation Xrotation Yrotation
                  JOINT RightHandMiddle2
                  {
                    OFFSET -4.0984 0.0113983 -0.0242
                    CHANNELS 3 Zrotation Xrotation Yrotation
                    JOINT RightHandMiddle3
                    {
                      OFFSET -2.2716 0.00691223 -0.0138001
                      CHANNELS 3 Zrotation Xrotation Yrotation
                      End Site
                      {
                        OFFSET -2.0404 -0.1441 0.0027
                      }
                    }
                  }
                }
                JOINT RightHandRing1
                {
                  OFFSET -8.5234 0.597198 -2.0164
                  CHANNELS 3 Zrotation Xrotation Yrotation
                  JOINT RightHandRing2
                  {
                    OFFSET -3.7188 -0.188309 -0.2328
                    CHANNELS 3 Zrotation Xrotation Yrotation
                    JOINT RightHandRing3
                    {
                      OFFSET -2.1191 -0.106598 -0.1332
                      CHANNELS 3 Zrotation Xrotation Yrotation
                      End Site
                      {
                        OFFSET -1.8737 -0.2304 -0.0886
                      }
                    }
                  }
                }
                JOINT RightHandPinky1
                {
                  OFFSET -7.9094 -0.601105 -3.4825
                  CHANNELS 3 Zrotation Xrotation Yrotation
                  JOINT RightHandPinky2
                  {
                    OFFSET -2.2874 -0.477005 -0.6314
                    CHANNELS 3 Zrotation Xrotation Yrotation
                    JOINT RightHandPinky3
                    {
                      OFFSET -1.6774 -0.349396 -0.4633
                      CHANNELS 3 Zrotation Xrotation Yrotation
                      End Site
                      {
                        OFFSET -1.4888 -0.4091 -0.3416
                      }
                    }
                  }
                }
                JOINT RightHandThumb1
                {
                  OFFSET -1.833 -1.38751 1.3896
                  CHANNELS 3 Zrotation Xrotation Yrotation
                  JOINT RightHandThumb2
                  {
                    OFFSET -3.41299 -1.12099 2.5732
                    CHANNELS 3 Zrotation Xrotation Yrotation
                    JOINT RightHandThumb3
                    {
                      OFFSET -2.24741 -0.804108 1.6192
                      CHANNELS 3 Zrotation Xrotation Yrotation
                      End Site
                      {
                        OFFSET -1.6527 -0.5689 1.1317
                      }
                    }
                  }
                }
              }
            }
          }
        }
      }
    }
  }
  JOINT RightUpLeg
  {
    OFFSET -9.1966 3.8861 -0.7581
    CHANNELS 3 Zrotation Xrotation Yrotation
    JOINT RightLeg
    {
      OFFSET -0.7359 -41.0265 0
      CHANNELS 3 Zrotation Xrotation Yrotation
      JOINT RightFoot
      {
        OFFSET 0 -40.2855 0
        CHANNELS 3 Zrotation Xrotation Yrotation
        JOINT RightToeBase
        {
          OFFSET 0 -5.6122 11.7359
          CHANNELS 3 Zrotation Xrotation Yrotation
          End Site
          {
            OFFSET 0 0 7.8731
          }
        }
      }
    }
  }
  JOINT LeftUpLeg
  {
    OFFSET 9.1965 3.8864 -0.7581
    CHANNELS 3 Zrotation Xrotation Yrotation
    JOINT LeftLeg
    {
      OFFSET 0.7359 -41.0268 0
      CHANNELS 3 Zrotation Xrotation Yrotation
      JOINT LeftFoot
      {
        OFFSET 0 -40.2855 0
        CHANNELS 3 Zrotation Xrotation Yrotation
        JOINT LeftToeBase
        {
          OFFSET 0 -5.6122 11.7359
          CHANNELS 3 Zrotation Xrotation Yrotation
          End Site
          {
            OFFSET 0 0 7.8731
          }
        }
      }
    }
  }
}
MOTION
Frames:	6
Frame Time:	0.0333333
-35.7756 11.5562 -38.7839 -0 90 -179.996 -0.30497 4.69876 -0.162152 -0.599586 9.3983 -0.300634 -0.599586 9.39831 -0.300634 -2.08034e-005 -12.4863 -1.00734e-006 -0.0080796 -5.92606 7.89646 -5.84034 10.666 -2.73858 -47.5638 -1.9977 35.0079 2.2262 58.5584 -60.6401 39.5377 30.9653 -2.71544 -1.19566e-006 1.32056e-007 1.01672e-007 1.10348e-031 -1.98785e-015 3.18055e-015 -3.31928e-007 -2.659e-007 3.09389e-008 -1.19566e-006 1.32056e-007 1.01672e-007 -0.0145962 -8.75884e-005 4.85708e-006 -3.31926e-007 -2.65904e-007 3.09053e-008 -1.19566e-006 1.32056e-007 1.01672e-007 -0.0187385 -0.00117514 5.91743e-005 -3.31925e-007 -2.65905e-007 3.08988e-008 -1.19566e-006 1.32056e-007 1.01672e-007 -0.0122657 -0.00324724 0.000679096 -3.31927e-007 -2.65901e-007 3.09198e-008 -1.19566e-006 1.32056e-007 1.01672e-007 1.10348e-031 -1.98785e-015 3.18055e-015 -3.31928e-007 -2.659e-007 3.09389e-008 5.65161 10.6032 2.67094 47.4238 -1.94705 -34.5887 -2.23934 58.4601 59.3599 -39.4645 29.8657 3.73533 -7.95139e-016 -1.39149e-015 -0 3.21052e-007 3.62685e-008 -4.16188e-006 -4.37326e-015 2.74323e-014 9.54166e-015 -7.95139e-016 -1.39149e-015 -0 0.0150053 -9.33755e-005 7.7208e-006 3.97569e-016 2.38542e-015 6.36111e-015 -7.95139e-016 -1.39149e-015 -0 0.0189988 -0.00119073 -5.17207e-005 3.97569e-016 5.96354e-016 -0 -7.95139e-016 -1.39149e-015 -0 0.0122726 -0.00324853 -0.000672957 -1.59028e-015 -1.98785e-015 -0 -7.95139e-016 -1.39149e-015 -0 3.21052e-007 3.62685e-008 -4.16188e-006 -4.37326e-015 2.74323e-014 9.54166e-015 -10.1684 -18.7175 -5.98471 -16.577 73.9859 13.492 -2.72198 18.8239 2.75335 -5.94057e-007 1.64063e-006 7.37858e-008 10.1522 -18.7139 5.97131 16.5088 73.989 -13.437 2.69928 18.8139 -2.75389 -3.14584e-008 1.72504e-006 8.66374e-007 
-35.7756 11.4905 -38.4445 -0 90 -179.996 -0.304209 4.76739 -0.163594 -0.597824 9.53557 -0.303266 -0.597824 9.53558 -0.303266 -1.44747e-006 -11.8394 -8.84018e-007 -0.0143598 -5.82951 7.76705 -6.4349 10.1288 -2.79133 -47.3537 -1.90761 34.6298 2.35219 58.4283 -60.0346 39.2357 30.6247 -2.55347 -3.31797e-007 -2.66106e-007 3.06037e-008 6.49448e-007 7.55766e-007 4.2271e-006 1.19581e-006 -1.31381e-007 -1.00914e-007 -3.31797e-007 -2.66106e-007 3.06037e-008 -0.0146176 -8.89607e-005 1.06759e-005 1.19581e-006 -1.31368e-007 -1.00932e-007 -3.31797e-007 -2.66106e-007 3.06037e-008 -0.0187763 -0.00117822 5.99097e-005 1.19581e-006 -1.31365e-007 -1.00948e-007 -3.31797e-007 -2.66106e-007 3.06037e-008 -0.0122645 -0.00324635 0.000673559 1.1958e-006 -1.31376e-007 -1.00962e-007 -3.31797e-007 -2.66106e-007 3.06037e-008 6.49448e-007 7.55766e-007 4.2271e-006 1.19581e-006 -1.31381e-007 -1.00914e-007 6.25542 10.0687 2.72648 47.2202 -1.86076 -34.232 -2.3679 58.3357 58.822 -39.1671 29.5835 3.52394 3.39172e-007 -2.5602e-007 -3.39294e-008 3.39172e-007 -2.5602e-007 -3.39294e-008 3.39172e-007 -2.5602e-007 -3.39294e-008 3.39172e-007 -2.5602e-007 -3.39294e-008 0.014979 -9.16686e-005 -6.06886e-006 3.39169e-007 -2.56024e-007 -3.38962e-008 3.39172e-007 -2.5602e-007 -3.39294e-008 0.0190074 -0.00119263 -5.49065e-005 3.39168e-007 -2.56025e-007 -3.38905e-008 3.39172e-007 -2.5602e-007 -3.39294e-008 0.0122659 -0.00324606 -0.000678176 3.3917e-007 -2.56021e-007 -3.39115e-008 3.39172e-007 -2.5602e-007 -3.39294e-008 3.39172e-007 -2.5602e-007 -3.39294e-008 3.39172e-007 -2.5602e-007 -3.39294e-008 -10.1433 -18.44 -5.94132 -15.5838 73.326 12.5498 -2.79821 19.2652 2.73975 -6.39737e-009 1.98097e-008 -8.55915e-007 10.1277 -18.4375 5.9284 15.522 73.3294 -12.5007 2.7765 19.2556 -2.74034 -8.93227e-009 -9.08863e-008 5.4818e-007 
-35.7756 11.4312 -38.138 -0 90 -179.996 -0.303175 4.82946 -0.164829 -0.59554 9.65972 -0.305543 -0.59554 9.65972 -0.305542 -7.8778e-006 -11.2578 7.49693e-007 -0.0198234 -5.74283 7.65087 -6.97166 9.64385 -2.84422 -47.1635 -1.82763 34.2881 2.46758 58.3116 -59.4886 38.9649 30.3165 -2.40961 1.19592e-006 -1.3085e-007 -1.00292e-007 4.70643e-007 -9.79969e-008 9.59773e-006 3.31694e-007 2.66269e-007 -3.03315e-008 1.19592e-006 -1.3085e-007 -1.00292e-007 -0.0146163 -8.86383e-005 2.40146e-006 6.2958e-007 6.59723e-007 9.95516e-007 1.19592e-006 -1.3085e-007 -1.00292e-007 -0.0187606 -0.0011765 7.66426e-005 6.2924e-007 6.59595e-007 9.9554e-007 1.19592e-006 -1.3085e-007 -1.00292e-007 -0.0122284 -0.00323686 0.000677488 3.31692e-007 2.6627e-007 -3.03123e-008 1.19592e-006 -1.3085e-007 -1.00292e-007 4.70643e-007 -9.79969e-008 9.59773e-006 3.31694e-007 2.66269e-007 -3.03315e-008 6.80056 9.58625 2.78194 47.0359 -1.78405 -33.9097 -2.48531 58.2241 58.337 -38.9003 29.3278 3.33505 3.39084e-007 -2.56173e-007 -3.36716e-008 -3.39084e-007 2.56173e-007 3.36716e-008 3.39084e-007 -2.56173e-007 -3.36716e-008 3.39084e-007 -2.56173e-007 -3.36716e-008 0.0149943 -9.18965e-005 -9.11362e-007 3.39081e-007 -2.56177e-007 -3.36383e-008 3.39084e-007 -2.56173e-007 -3.36716e-008 0.0189983 -0.00119113 -6.28349e-005 3.49889e-007 -4.99273e-007 2.76138e-006 3.39084e-007 -2.56173e-007 -3.36716e-008 0.0122694 -0.00324762 -0.000676478 3.39082e-007 -2.56174e-007 -3.36536e-008 3.39084e-007 -2.56173e-007 -3.36716e-008 -3.39084e-007 2.56173e-007 3.36716e-008 3.39084e-007 -2.56173e-007 -3.36716e-008 -10.1207 -18.1902 -5.90252 -14.7506 72.7267 11.7625 -2.86737 19.6635 2.72792 1.05246e-007 1.08156e-008 -1.39472e-008 10.1058 -18.1873 5.89008 14.6926 72.7293 -11.717 2.84659 19.6545 -2.72856 -1.11656e-007 -8.83272e-009 -8.4199e-007 
-35.7756 11.3719 -37.8315 -0 90 -179.996 -0.302185 4.89162 -0.166068 -0.593341 9.78404 -0.307822 -0.593341 9.78404 -0.307822 -9.41677e-006 -10.6749 -1.89995e-006 -0.0251114 -5.65613 7.5347 -7.50848 9.15908 -2.90168 -46.9728 -1.74876 33.946 2.58483 58.1955 -58.9438 38.6958 30.0077 -2.26784 1.19271e-015 2.18663e-015 -3.18055e-015 6.48035e-007 7.47841e-007 4.23252e-006 3.97569e-016 2.48481e-015 -0 1.19271e-015 2.18663e-015 -3.18055e-015 -0.0146407 -8.91927e-005 3.53583e-006 -1.19271e-015 1.78906e-015 -1.59028e-015 1.19271e-015 2.18663e-015 -3.18055e-015 -0.0187372 -0.00117455 7.02955e-005 -1.59028e-015 1.19271e-015 -0 1.19271e-015 2.18663e-015 -3.18055e-015 -0.012293 -0.00325369 0.00068029 7.95139e-016 4.27387e-015 1.59028e-015 1.19271e-015 2.18663e-015 -3.18055e-015 6.48035e-007 7.47841e-007 4.23252e-006 3.97569e-016 2.48481e-015 -0 7.34579 9.10404 2.84201 46.8512 -1.70838 -33.5871 -2.60432 58.113 57.8531 -38.6351 29.0714 3.14798 -1.19271e-015 2.98177e-015 -0 1.02523e-006 1.35603e-006 -8.89832e-008 3.39007e-007 -2.56308e-007 -3.34421e-008 -1.19271e-015 2.98177e-015 -0 0.0150032 -9.14551e-005 -4.22478e-006 3.39004e-007 -2.56312e-007 -3.34088e-008 -1.19271e-015 2.98177e-015 -0 0.0190067 -0.00119138 -5.69752e-005 3.39003e-007 -2.56313e-007 -3.34031e-008 -1.19271e-015 2.98177e-015 -0 0.0122597 -0.00324469 -0.00067844 3.39005e-007 -2.56309e-007 -3.34241e-008 -1.19271e-015 2.98177e-015 -0 1.02523e-006 1.35603e-006 -8.89832e-008 3.39007e-007 -2.56308e-007 -3.34421e-008 -10.0983 -17.9402 -5.86409 -13.9708 72.124 11.0286 -2.93682 20.0619 2.7165 -1.97961e-007 -6.13346e-008 1.73971e-006 10.084 -17.9373 5.85213 13.9169 72.126 -10.9869 2.91698 20.0533 -2.71719 8.82781e-032 -3.18055e-015 1.59028e-015 
-35.7756 11.3125 -37.5251 -0 90 -179.996 -0.301179 4.95386 -0.167297 -0.591111 9.90851 -0.31009 -0.591111 9.90849 -0.31009 4.74226e-007 -10.0908 -2.00235e-006 -0.0302219 -5.56939 7.41854 -8.04539 8.6746 -2.96368 -46.7815 -1.67103 33.6037 2.7038 58.0799 -58.4 38.4284 29.6982 -2.12815 -0 -2.77305e-014 -0 -3.97569e-016 -2.88238e-014 1.59028e-015 -6.63046e-007 -5.33076e-007 5.97542e-008 -0 -2.77305e-014 -0 -0.0146103 -8.83929e-005 -9.77883e-006 -6.63041e-007 -5.33084e-007 5.96867e-008 -0 -2.77305e-014 -0 -0.0187278 -0.00117372 7.16398e-005 -6.63039e-007 -5.33085e-007 5.96739e-008 -0 -2.77305e-014 -0 -0.0122188 -0.0032356 0.000688001 -6.63043e-007 -5.33077e-007 5.97159e-008 -0 -2.77305e-014 -0 -3.97569e-016 -2.88238e-014 1.59028e-015 -6.63046e-007 -5.33076e-007 5.97542e-008 7.89113 8.62213 2.90667 46.666 -1.63375 -33.2642 -2.72467 58.0024 57.3699 -38.3714 28.8141 2.96273 0 3.97569e-015 -0 7.95139e-016 6.16232e-015 6.36111e-015 -3.97569e-016 5.36719e-015 6.36111e-015 0 3.97569e-015 -0 0.0150001 -9.10628e-005 -4.43977e-006 -3.97569e-016 1.39149e-015 -3.18055e-015 0 3.97569e-015 -0 0.0189979 -0.00119025 -5.33851e-005 1.65692e-008 -2.28149e-007 2.80466e-006 0 3.97569e-015 -0 0.0122593 -0.00324568 -0.00066836 -1.59028e-015 1.19271e-015 -3.18055e-015 0 3.97569e-015 -0 7.95139e-016 6.16232e-015 6.36111e-015 -3.97569e-016 5.36719e-015 6.36111e-015 -10.076 -17.6898 -5.82607 -13.2393 71.5177 10.3431 -3.0066 20.4602 2.70548 1.05248e-007 1.08137e-008 -1.39316e-008 10.0622 -17.6876 5.81453 13.1902 71.5201 -10.3056 2.98765 20.452 -2.70624 1.05251e-007 -1.07806e-008 -1.39404e-008 
-35.7756 11.2532 -37.2186 -0 90 -179.996 -0.30016 5.01616 -0.168519 -0.58885 10.0331 -0.312346 -0.588849 10.0331 -0.312345 -1.17047e-005 -9.50637 4.34975e-007 -0.0351578 -5.48261 7.3024 -8.58243 8.19045 -3.03024 -46.5898 -1.59444 33.261 2.82445 57.9649 -57.8572 38.1626 29.3881 -1.99054 2.59448e-008 6.93948e-008 3.24929e-006 -3.31456e-007 -2.66644e-007 2.96953e-008 -1.5536e-006 -2.06415e-007 -3.12079e-006 2.59448e-008 6.93948e-008 3.24929e-006 -0.0146002 -8.83637e-005 4.1048e-006 -1.1962e-006 1.29611e-007 9.88263e-008 2.59448e-008 6.93948e-008 3.24929e-006 -0.0187514 -0.00117499 6.72712e-005 -1.1962e-006 1.29608e-007 9.88423e-008 2.59448e-008 6.93948e-008 3.24929e-006 -0.0122984 -0.00325498 0.000684095 -1.5553e-006 -2.06496e-007 -3.12067e-006 2.59448e-008 6.93948e-008 3.24929e-006 -3.31456e-007 -2.66644e-007 2.96953e-008 -1.5536e-006 -2.06415e-007 -3.12079e-006 8.43664 8.14059 2.97593 46.4804 -1.56017 -32.941 -2.84645 57.8923 56.8876 -38.1094 28.5561 2.77924 6.77856e-007 -4.62897e-007 -1.39516e-006 1.19082e-006 1.64714e-007 -1.10517e-007 3.38882e-007 -2.56525e-007 -3.30692e-008 6.77856e-007 -4.62897e-007 -1.39516e-006 0.015004 -8.98333e-005 -6.3044e-006 3.40228e-007 -2.06558e-007 -1.36206e-006 6.77856e-007 -4.62897e-007 -1.39516e-006 0.0190072 -0.00119098 -5.67607e-005 3.38878e-007 -2.5653e-007 -3.30301e-008 6.77856e-007 -4.62897e-007 -1.39516e-006 0.0122624 -0.0032466 -0.000677324 3.3888e-007 -2.56526e-007 -3.30512e-008 6.77856e-007 -4.62897e-007 -1.39516e-006 1.19082e-006 1.64714e-007 -1.10517e-007 3.38882e-007 -2.56525e-007 -3.30692e-008 -10.0538 -17.4397 -5.78838 -12.5526 70.909 9.70214 -3.07668 20.8584 2.69487 2.10499e-007 2.16257e-008 -2.78484e-008 10.0406 -17.4376 5.77731 12.5073 70.9111 -9.66809 3.05864 20.8507 -2.6957 1.05252e-007 -1.07809e-008 -1.39324e-008 
